<svg width="360" height="60" viewBox="0 0 360 60" fill="none" xmlns="http://www.w3.org/2000/svg">
  <!-- Calculator Icon (from favicon) - Prominent with gradient background -->
  <g transform="translate(8, 14)">
    <!-- Icon background with gradient -->
    <defs>
      <linearGradient id="iconGradient" x1="0%" y1="0%" x2="100%" y2="100%">
        <stop offset="0%" style="stop-color:#2563eb;stop-opacity:1" />
        <stop offset="100%" style="stop-color:#1d4ed8;stop-opacity:1" />
      </linearGradient>
    </defs>
    
    <!-- Icon background -->
    <rect x="0" y="0" width="32" height="32" rx="6" fill="url(#iconGradient)"/>
    
    <!-- Calculator body -->
    <rect x="6" y="6" width="20" height="20" rx="3" fill="white"/>
    
    <!-- Calculator screen -->
    <rect x="9" y="9" width="14" height="3" rx="1" fill="#2563eb"/>
    
    <!-- Calculator buttons -->
    <rect x="9" y="14" width="3" height="3" rx="0.5" fill="#64748b"/>
    <rect x="13" y="14" width="3" height="3" rx="0.5" fill="#64748b"/>
    <rect x="17" y="14" width="3" height="3" rx="0.5" fill="#64748b"/>
    <rect x="21" y="14" width="3" height="3" rx="0.5" fill="#2563eb"/>
    
    <rect x="9" y="18" width="3" height="3" rx="0.5" fill="#64748b"/>
    <rect x="13" y="18" width="3" height="3" rx="0.5" fill="#64748b"/>
    <rect x="17" y="18" width="3" height="3" rx="0.5" fill="#64748b"/>
    <rect x="21" y="18" width="3" height="3" rx="0.5" fill="#2563eb"/>
    
    <rect x="9" y="22" width="3" height="3" rx="0.5" fill="#64748b"/>
    <rect x="13" y="22" width="3" height="3" rx="0.5" fill="#64748b"/>
    <rect x="17" y="22" width="3" height="3" rx="0.5" fill="#64748b"/>
    <rect x="21" y="22" width="3" height="3" rx="0.5" fill="#2563eb"/>
  </g>
  
  <!-- Text with gradient - Larger and bolder -->
  <defs>
    <linearGradient id="textGradient" x1="0%" y1="0%" x2="100%" y2="0%">
      <stop offset="0%" style="stop-color:#1e293b;stop-opacity:1" />
      <stop offset="100%" style="stop-color:#2563eb;stop-opacity:1" />
    </linearGradient>
  </defs>
  
  <text x="48" y="42" font-family="Arial, sans-serif" font-size="26" font-weight="900" fill="url(#textGradient)" letter-spacing="-0.5" textLength="280">
    Calculator360Pro
  </text>
</svg>

