<svg width="32" height="32" viewBox="0 0 32 32" fill="none" xmlns="http://www.w3.org/2000/svg">
  <!-- Background -->
  <rect width="32" height="32" rx="6" fill="#2563eb"/>
  
  <!-- Calculator Icon -->
  <rect x="6" y="6" width="20" height="20" rx="3" fill="white" opacity="0.95"/>
  <rect x="9" y="9" width="14" height="3" rx="1" fill="#2563eb"/>
  <rect x="9" y="14" width="3" height="3" rx="0.5" fill="#64748b"/>
  <rect x="13" y="14" width="3" height="3" rx="0.5" fill="#64748b"/>
  <rect x="17" y="14" width="3" height="3" rx="0.5" fill="#64748b"/>
  <rect x="21" y="14" width="3" height="3" rx="0.5" fill="#2563eb"/>
  <rect x="9" y="18" width="3" height="3" rx="0.5" fill="#64748b"/>
  <rect x="13" y="18" width="3" height="3" rx="0.5" fill="#64748b"/>
  <rect x="17" y="18" width="3" height="3" rx="0.5" fill="#64748b"/>
  <rect x="21" y="18" width="3" height="3" rx="0.5" fill="#2563eb"/>
  <rect x="9" y="22" width="3" height="3" rx="0.5" fill="#64748b"/>
  <rect x="13" y="22" width="3" height="3" rx="0.5" fill="#64748b"/>
  <rect x="17" y="22" width="3" height="3" rx="0.5" fill="#64748b"/>
  <rect x="21" y="22" width="3" height="3" rx="0.5" fill="#2563eb"/>
</svg>

